<?xml version="1.0" encoding="UTF-8" standalone="no"?>
<svg width="300" height="80" xmlns="http://www.w3.org/2000/svg">
  <style>
    .title { font: bold 30px sans-serif; fill: #3498db; }
    .brain { fill: #e74c3c; }
    .tagline { font: italic 14px sans-serif; fill: #34495e; }
  </style>
  
  <g class="brain">
    <path d="M40,20 C28,20 20,30 20,40 C20,50 28,60 40,60 C52,60 60,50 60,40 C60,30 52,20 40,20 Z M30,30 C25,35 25,45 30,50 M50,30 C55,35 55,45 50,50 M35,25 C35,35 45,35 45,25 M35,55 C35,45 45,45 45,55" 
      stroke="#e74c3c" stroke-width="3" fill="none" />
  </g>
  
  <text x="75" y="45" class="title">BrainVenture</text>
  
  <text x="75" y="65" class="tagline">Kurs Neuroprzywództwa</text>
</svg>
