<!-- Book Brain SVG Placeholder -->
<svg width="200" height="300" xmlns="http://www.w3.org/2000/svg">
  <style>
    .background { fill: #A5D6A7; }
    .book-cover { fill: #2E7D32; }
    .book-spine { fill: #1B5E20; }
    .title { font: bold 16px sans-serif; fill: #FFF; text-anchor: middle; }
    .author { font: italic 12px sans-serif; fill: #FFF; text-anchor: middle; }
    .brain-icon { fill: none; stroke: #E8F5E9; stroke-width: 2; }
  </style>
  
  <!-- Background -->
  <rect class="background" width="200" height="300" rx="5" />
  
  <!-- Book cover -->
  <rect class="book-cover" x="20" y="40" width="160" height="220" rx="3" />
  
  <!-- Book spine -->
  <rect class="book-spine" x="20" y="40" width="15" height="220" />
  
  <!-- Brain drawing -->
  <path class="brain-icon" d="M100,90 C70,90 50,110 50,140 C50,170 70,190 100,190 C130,190 150,170 150,140 C150,110 130,90 100,90 Z" />
  <path class="brain-icon" d="M75,115 C65,125 65,155 75,165" />
  <path class="brain-icon" d="M125,115 C135,125 135,155 125,165" />
  <path class="brain-icon" d="M90,100 C90,120 110,120 110,100" />
  <path class="brain-icon" d="M90,180 C90,160 110,160 110,180" />
  
  <!-- Title -->
  <text x="100" y="220" class="title">MÓZG LIDERA</text>
  
  <!-- Author -->
  <text x="100" y="240" class="author">Prof. Maria Kowalczyk</text>
</svg>
